<?xml version="1.0" standalone="no"?>
<svg xmlns:xlink="http://www.w3.org/1999/xlink" id="wave" style="transform:rotate(0deg); transition: 0.3s" viewBox="0 0 1440 490" version="1.1" xmlns="http://www.w3.org/2000/svg"><defs><linearGradient id="sw-gradient-0" x1="0" x2="0" y1="1" y2="0"><stop stop-color="rgba(251, 133, 0, 1)" offset="0%"/><stop stop-color="rgba(255, 183, 3, 1)" offset="100%"/></linearGradient></defs><path style="transform:translate(0, 0px); opacity:1" fill="url(#sw-gradient-0)" d="M0,98L40,89.8C80,82,160,65,240,81.7C320,98,400,147,480,187.8C560,229,640,261,720,277.7C800,294,880,294,960,285.8C1040,278,1120,261,1200,236.8C1280,212,1360,180,1440,171.5C1520,163,1600,180,1680,220.5C1760,261,1840,327,1920,302.2C2000,278,2080,163,2160,138.8C2240,114,2320,180,2400,196C2480,212,2560,180,2640,147C2720,114,2800,82,2880,57.2C2960,33,3040,16,3120,24.5C3200,33,3280,65,3360,122.5C3440,180,3520,261,3600,302.2C3680,343,3760,343,3840,326.7C3920,310,4000,278,4080,277.7C4160,278,4240,310,4320,318.5C4400,327,4480,310,4560,285.8C4640,261,4720,229,4800,253.2C4880,278,4960,359,5040,326.7C5120,294,5200,147,5280,89.8C5360,33,5440,65,5520,114.3C5600,163,5680,229,5720,261.3L5760,294L5760,490L5720,490C5680,490,5600,490,5520,490C5440,490,5360,490,5280,490C5200,490,5120,490,5040,490C4960,490,4880,490,4800,490C4720,490,4640,490,4560,490C4480,490,4400,490,4320,490C4240,490,4160,490,4080,490C4000,490,3920,490,3840,490C3760,490,3680,490,3600,490C3520,490,3440,490,3360,490C3280,490,3200,490,3120,490C3040,490,2960,490,2880,490C2800,490,2720,490,2640,490C2560,490,2480,490,2400,490C2320,490,2240,490,2160,490C2080,490,2000,490,1920,490C1840,490,1760,490,1680,490C1600,490,1520,490,1440,490C1360,490,1280,490,1200,490C1120,490,1040,490,960,490C880,490,800,490,720,490C640,490,560,490,480,490C400,490,320,490,240,490C160,490,80,490,40,490L0,490Z"/><defs><linearGradient id="sw-gradient-1" x1="0" x2="0" y1="1" y2="0"><stop stop-color="rgba(251, 133, 0, 1)" offset="0%"/><stop stop-color="rgba(255, 183, 3, 1)" offset="100%"/></linearGradient></defs><path style="transform:translate(0, 50px); opacity:0.9" fill="url(#sw-gradient-1)" d="M0,441L40,408.3C80,376,160,310,240,261.3C320,212,400,180,480,138.8C560,98,640,49,720,73.5C800,98,880,196,960,261.3C1040,327,1120,359,1200,310.3C1280,261,1360,131,1440,81.7C1520,33,1600,65,1680,106.2C1760,147,1840,196,1920,253.2C2000,310,2080,376,2160,400.2C2240,425,2320,408,2400,351.2C2480,294,2560,196,2640,138.8C2720,82,2800,65,2880,98C2960,131,3040,212,3120,269.5C3200,327,3280,359,3360,343C3440,327,3520,261,3600,212.3C3680,163,3760,131,3840,163.3C3920,196,4000,294,4080,351.2C4160,408,4240,425,4320,392C4400,359,4480,278,4560,269.5C4640,261,4720,327,4800,294C4880,261,4960,131,5040,81.7C5120,33,5200,65,5280,98C5360,131,5440,163,5520,147C5600,131,5680,65,5720,32.7L5760,0L5760,490L5720,490C5680,490,5600,490,5520,490C5440,490,5360,490,5280,490C5200,490,5120,490,5040,490C4960,490,4880,490,4800,490C4720,490,4640,490,4560,490C4480,490,4400,490,4320,490C4240,490,4160,490,4080,490C4000,490,3920,490,3840,490C3760,490,3680,490,3600,490C3520,490,3440,490,3360,490C3280,490,3200,490,3120,490C3040,490,2960,490,2880,490C2800,490,2720,490,2640,490C2560,490,2480,490,2400,490C2320,490,2240,490,2160,490C2080,490,2000,490,1920,490C1840,490,1760,490,1680,490C1600,490,1520,490,1440,490C1360,490,1280,490,1200,490C1120,490,1040,490,960,490C880,490,800,490,720,490C640,490,560,490,480,490C400,490,320,490,240,490C160,490,80,490,40,490L0,490Z"/><defs><linearGradient id="sw-gradient-2" x1="0" x2="0" y1="1" y2="0"><stop stop-color="rgba(251, 133, 0, 1)" offset="0%"/><stop stop-color="rgba(255, 183, 3, 1)" offset="100%"/></linearGradient></defs><path style="transform:translate(0, 100px); opacity:0.8" fill="url(#sw-gradient-2)" d="M0,441L40,424.7C80,408,160,376,240,343C320,310,400,278,480,245C560,212,640,180,720,147C800,114,880,82,960,122.5C1040,163,1120,278,1200,277.7C1280,278,1360,163,1440,130.7C1520,98,1600,147,1680,171.5C1760,196,1840,196,1920,220.5C2000,245,2080,294,2160,277.7C2240,261,2320,180,2400,147C2480,114,2560,131,2640,130.7C2720,131,2800,114,2880,138.8C2960,163,3040,229,3120,285.8C3200,343,3280,392,3360,400.2C3440,408,3520,376,3600,334.8C3680,294,3760,245,3840,236.8C3920,229,4000,261,4080,302.2C4160,343,4240,392,4320,383.8C4400,376,4480,310,4560,302.2C4640,294,4720,343,4800,318.5C4880,294,4960,196,5040,138.8C5120,82,5200,65,5280,89.8C5360,114,5440,180,5520,187.8C5600,196,5680,147,5720,122.5L5760,98L5760,490L5720,490C5680,490,5600,490,5520,490C5440,490,5360,490,5280,490C5200,490,5120,490,5040,490C4960,490,4880,490,4800,490C4720,490,4640,490,4560,490C4480,490,4400,490,4320,490C4240,490,4160,490,4080,490C4000,490,3920,490,3840,490C3760,490,3680,490,3600,490C3520,490,3440,490,3360,490C3280,490,3200,490,3120,490C3040,490,2960,490,2880,490C2800,490,2720,490,2640,490C2560,490,2480,490,2400,490C2320,490,2240,490,2160,490C2080,490,2000,490,1920,490C1840,490,1760,490,1680,490C1600,490,1520,490,1440,490C1360,490,1280,490,1200,490C1120,490,1040,490,960,490C880,490,800,490,720,490C640,490,560,490,480,490C400,490,320,490,240,490C160,490,80,490,40,490L0,490Z"/></svg>